<?xml version="1.0" encoding="UTF-8" standalone="no"?><svg xmlns="http://www.w3.org/2000/svg" xmlns:xlink="http://www.w3.org/1999/xlink" contentScriptType="application/ecmascript" contentStyleType="text/css" height="2137.5px" preserveAspectRatio="none" style="width:717px;height:2137px;background:#00000000;" version="1.1" viewBox="0 0 717 2137" width="717.7083px" zoomAndPan="magnify"><defs><linearGradient id="g1pzczinaycwow0" x1="50%" x2="50%" y1="0%" y2="100%"><stop offset="0%" stop-color="#7C9AB9"/><stop offset="100%" stop-color="#304D6D"/></linearGradient><linearGradient id="g1pzczinaycwow1" x1="50%" x2="50%" y1="0%" y2="100%"><stop offset="0%" stop-color="#B8B8B8"/><stop offset="100%" stop-color="#6B6B6B"/></linearGradient></defs><g><ellipse cx="324.4792" cy="20.8333" fill="#3399F3" rx="10.4167" ry="10.4167" style="stroke:none;stroke-width:1.0416666666666667;"/><rect fill="url(#g1pzczinaycwow0)" height="61.6333" style="stroke:#304D6D;stroke-width:1.5625;" width="203.125" x="222.9167" y="194.0796"/><line style="stroke:#304D6D;stroke-width:1.5625;" x1="228.125" x2="228.125" y1="194.0796" y2="255.7129"/><line style="stroke:#304D6D;stroke-width:1.5625;" x1="420.8333" x2="420.8333" y1="194.0796" y2="255.7129"/><text fill="#FFFFFF" font-family="Verdana" font-size="12.5" lengthAdjust="spacing" textLength="171.875" x="238.5417" y="222.2717">Поиск ближайшего Entity</text><text fill="#FFFFFF" font-family="Verdana" font-size="12.5" lengthAdjust="spacing" textLength="96.875" x="276.0417" y="237.4634">(ClosestEntity)</text><rect fill="url(#g1pzczinaycwow0)" height="46.4417" style="stroke:#304D6D;stroke-width:1.5625;" width="153.125" x="247.9167" y="276.5462"/><text fill="#FFFFFF" font-family="Verdana" font-size="12.5" lengthAdjust="spacing" textLength="121.875" x="263.5417" y="304.7384">Обновить Timeout</text><polygon fill="url(#g1pzczinaycwow1)" points="241.1458,343.8212,407.8125,343.8212,420.3125,356.6254,407.8125,369.4295,241.1458,369.4295,228.6458,356.6254,241.1458,343.8212" style="stroke:#6B6B6B;stroke-width:1.5625;"/><text fill="#FFFFFF" font-family="Verdana" font-size="12.5" lengthAdjust="spacing" textLength="156.25" x="246.3542" y="361.5967">ClosestEntity найдено?</text><text fill="#000000" font-family="Verdana" font-size="12.5" lengthAdjust="spacing" textLength="16.6667" x="206.7708" y="348.7925">да</text><text fill="#000000" font-family="Verdana" font-size="12.5" lengthAdjust="spacing" textLength="23.9583" x="425.5208" y="348.7925">нет</text><rect fill="url(#g1pzczinaycwow0)" height="46.4417" style="stroke:#304D6D;stroke-width:1.5625;" width="183.3333" x="74.4792" y="437.0087"/><line style="stroke:#304D6D;stroke-width:1.5625;" x1="79.6875" x2="79.6875" y1="437.0087" y2="483.4503"/><line style="stroke:#304D6D;stroke-width:1.5625;" x1="252.6042" x2="252.6042" y1="437.0087" y2="483.4503"/><text fill="#FFFFFF" font-family="Verdana" font-size="12.5" lengthAdjust="spacing" textLength="152.0833" x="90.1042" y="465.2008">Target := ClosestEntity</text><polygon fill="url(#g1pzczinaycwow1)" points="58.3333,379.8462,273.9583,379.8462,286.4583,392.6503,273.9583,405.4545,58.3333,405.4545,45.8333,392.6503,58.3333,379.8462" style="stroke:#6B6B6B;stroke-width:1.5625;"/><text fill="#000000" font-family="Verdana" font-size="12.5" lengthAdjust="spacing" textLength="23.9583" x="175.5208" y="423.23">нет</text><text fill="#FFFFFF" font-family="Verdana" font-size="12.5" lengthAdjust="spacing" textLength="205.2083" x="63.5417" y="397.6217">Флаг HoldTargetEntity = True ?</text><text fill="#000000" font-family="Verdana" font-size="12.5" lengthAdjust="spacing" textLength="16.6667" x="291.6667" y="384.8175">да</text><polygon fill="url(#g1pzczinaycwow1)" points="166.1458,504.2837,178.6458,516.7837,166.1458,529.2837,153.6458,516.7837,166.1458,504.2837" style="stroke:#6B6B6B;stroke-width:1.5625;"/><polygon fill="url(#g1pzczinaycwow1)" points="66.6667,550.117,265.625,550.117,278.125,570.517,265.625,590.917,66.6667,590.917,54.1667,570.517,66.6667,550.117" style="stroke:#6B6B6B;stroke-width:1.5625;"/><text fill="#000000" font-family="Verdana" font-size="12.5" lengthAdjust="spacing" textLength="23.9583" x="175.5208" y="608.6924">нет</text><text fill="#FFFFFF" font-family="Verdana" font-size="12.5" lengthAdjust="spacing" textLength="188.5417" x="71.875" y="567.8925">Расстояние до ClosestEntity</text><text fill="#FFFFFF" font-family="Verdana" font-size="12.5" lengthAdjust="spacing" textLength="123.9583" x="104.1667" y="583.0841">меньше Distance ?</text><text fill="#000000" font-family="Verdana" font-size="12.5" lengthAdjust="spacing" textLength="16.6667" x="283.3333" y="562.6841">да</text><ellipse cx="326.0417" cy="570.517" fill="url(#g1pzczinaycwow0)" rx="10.4167" ry="10.4167" style="stroke:#304D6D;stroke-width:1.5625;"/><path d="M330.2572,574.4232 L328.9714,574.4232 L328.0762,571.8842 L324.1536,571.8842 L323.2585,574.4232 L322.0378,574.4232 L325.3418,565.3412 L326.9531,565.3412 L330.2572,574.4232 Z M327.7181,570.8588 L326.123,566.3829 L324.5117,570.8588 L327.7181,570.8588 Z " fill="#FFFFFF"/><rect fill="url(#g1pzczinaycwow0)" height="46.4417" style="stroke:#304D6D;stroke-width:1.5625;" width="188.5417" x="388.5417" y="437.0087"/><text fill="#FFFFFF" font-family="Verdana" font-size="12.5" lengthAdjust="spacing" textLength="157.2917" x="404.1667" y="465.2008">Установка запрета боя</text><polygon fill="url(#g1pzczinaycwow1)" points="382.2917,379.8462,583.3333,379.8462,595.8333,392.6503,583.3333,405.4545,382.2917,405.4545,369.7917,392.6503,382.2917,379.8462" style="stroke:#6B6B6B;stroke-width:1.5625;"/><text fill="#000000" font-family="Verdana" font-size="12.5" lengthAdjust="spacing" textLength="16.6667" x="492.1875" y="423.23">да</text><text fill="#FFFFFF" font-family="Verdana" font-size="12.5" lengthAdjust="spacing" textLength="190.625" x="387.5" y="397.6217">Флаг IgnoreCombat = True ?</text><text fill="#000000" font-family="Verdana" font-size="12.5" lengthAdjust="spacing" textLength="23.9583" x="601.0417" y="384.8175">нет</text><polygon fill="url(#g1pzczinaycwow1)" points="482.8125,504.2837,495.3125,516.7837,482.8125,529.2837,470.3125,516.7837,482.8125,504.2837" style="stroke:#6B6B6B;stroke-width:1.5625;"/><rect fill="url(#g1pzczinaycwow0)" height="61.6333" style="stroke:#304D6D;stroke-width:1.5625;" width="173.9583" x="237.5" y="647.4711"/><line style="stroke:#304D6D;stroke-width:1.5625;" x1="242.7083" x2="242.7083" y1="647.4711" y2="709.1044"/><line style="stroke:#304D6D;stroke-width:1.5625;" x1="406.25" x2="406.25" y1="647.4711" y2="709.1044"/><text fill="#FFFFFF" font-family="Verdana" font-size="12.5" lengthAdjust="spacing" textLength="108.3333" x="270.3125" y="675.6632">Перемещение к</text><text fill="#FFFFFF" font-family="Verdana" font-size="12.5" lengthAdjust="spacing" textLength="142.7083" x="253.125" y="690.8549">следующему HotSpot</text><polygon fill="url(#g1pzczinaycwow1)" points="201.0417,97.9167,447.9167,97.9167,460.4167,125.9125,447.9167,153.9083,201.0417,153.9083,188.5417,125.9125,201.0417,97.9167" style="stroke:#6B6B6B;stroke-width:1.5625;"/><text fill="#000000" font-family="Verdana" font-size="12.5" lengthAdjust="spacing" textLength="16.6667" x="333.8542" y="171.6838">да</text><text fill="#FFFFFF" font-family="Verdana" font-size="12.5" lengthAdjust="spacing" textLength="127.0833" x="260.9375" y="115.6921">Target отсутствует</text><text fill="#FFFFFF" font-family="Verdana" font-size="12.5" lengthAdjust="spacing" textLength="28.125" x="310.4167" y="130.8838">ИЛИ</text><text fill="#FFFFFF" font-family="Verdana" font-size="12.5" lengthAdjust="spacing" textLength="236.4583" x="206.25" y="146.0754">Истек Timeout повторного поиска?</text><text fill="#000000" font-family="Verdana" font-size="12.5" lengthAdjust="spacing" textLength="23.9583" x="159.375" y="118.0796">нет</text><rect fill="url(#g1pzczinaycwow0)" height="46.4417" style="stroke:#304D6D;stroke-width:1.5625;" width="188.5417" x="230.2083" y="882.371"/><text fill="#FFFFFF" font-family="Verdana" font-size="12.5" lengthAdjust="spacing" textLength="157.2917" x="245.8333" y="910.5632">Установка запрета боя</text><polygon fill="url(#g1pzczinaycwow1)" points="223.9583,825.2085,425,825.2085,437.5,838.0127,425,850.8169,223.9583,850.8169,211.4583,838.0127,223.9583,825.2085" style="stroke:#6B6B6B;stroke-width:1.5625;"/><text fill="#000000" font-family="Verdana" font-size="12.5" lengthAdjust="spacing" textLength="16.6667" x="333.8542" y="868.5923">да</text><text fill="#FFFFFF" font-family="Verdana" font-size="12.5" lengthAdjust="spacing" textLength="190.625" x="229.1667" y="842.984">Флаг IgnoreCombat = True ?</text><text fill="#000000" font-family="Verdana" font-size="12.5" lengthAdjust="spacing" textLength="23.9583" x="442.7083" y="830.1799">нет</text><polygon fill="url(#g1pzczinaycwow1)" points="324.4792,967.2251,336.9792,979.7251,324.4792,992.2251,311.9792,979.7251,324.4792,967.2251" style="stroke:#6B6B6B;stroke-width:1.5625;"/><rect fill="url(#g1pzczinaycwow0)" height="46.4417" style="stroke:#304D6D;stroke-width:1.5625;" width="186.4583" x="231.25" y="1013.0585"/><line style="stroke:#304D6D;stroke-width:1.5625;" x1="236.4583" x2="236.4583" y1="1013.0585" y2="1059.5001"/><line style="stroke:#304D6D;stroke-width:1.5625;" x1="412.5" x2="412.5" y1="1013.0585" y2="1059.5001"/><text fill="#FFFFFF" font-family="Verdana" font-size="12.5" lengthAdjust="spacing" textLength="155.2083" x="246.875" y="1041.2506">Перемещение к Target</text><polygon fill="url(#g1pzczinaycwow1)" points="246.875,752.8544,402.0833,752.8544,414.5833,773.2544,402.0833,793.6544,246.875,793.6544,234.375,773.2544,246.875,752.8544" style="stroke:#6B6B6B;stroke-width:1.5625;"/><text fill="#000000" font-family="Verdana" font-size="12.5" lengthAdjust="spacing" textLength="16.6667" x="333.8542" y="811.4299">да</text><text fill="#FFFFFF" font-family="Verdana" font-size="12.5" lengthAdjust="spacing" textLength="144.7917" x="252.0833" y="770.6299">Расстояние до Target</text><text fill="#FFFFFF" font-family="Verdana" font-size="12.5" lengthAdjust="spacing" textLength="122.9167" x="263.0208" y="785.8215">больше Distance ?</text><text fill="#000000" font-family="Verdana" font-size="12.5" lengthAdjust="spacing" textLength="23.9583" x="419.7917" y="765.4215">нет</text><polygon fill="url(#g1pzczinaycwow1)" points="324.4792,1085.1313,336.9792,1097.6313,324.4792,1110.1313,311.9792,1097.6313,324.4792,1085.1313" style="stroke:#6B6B6B;stroke-width:1.5625;"/><ellipse cx="324.4792" cy="1141.3813" fill="url(#g1pzczinaycwow0)" rx="10.4167" ry="10.4167" style="stroke:#304D6D;stroke-width:1.5625;"/><path d="M328.6947,1145.2876 L327.4089,1145.2876 L326.5137,1142.7485 L322.5911,1142.7485 L321.696,1145.2876 L320.4753,1145.2876 L323.7793,1136.2055 L325.3906,1136.2055 L328.6947,1145.2876 Z M326.1556,1141.7231 L324.5605,1137.2472 L322.9492,1141.7231 L326.1556,1141.7231 Z " fill="#FFFFFF"/><rect fill="url(#g1pzczinaycwow0)" height="46.4417" style="stroke:#304D6D;stroke-width:1.5625;" width="150" x="249.4792" y="1172.6313"/><text fill="#FFFFFF" font-family="Verdana" font-size="12.5" lengthAdjust="spacing" textLength="118.75" x="265.1042" y="1200.8235">Снять запрет боя</text><rect fill="url(#g1pzczinaycwow0)" height="46.4417" style="stroke:#304D6D;stroke-width:1.5625;" width="242.7083" x="203.125" y="1358.0938"/><line style="stroke:#304D6D;stroke-width:1.5625;" x1="208.3333" x2="208.3333" y1="1358.0938" y2="1404.5354"/><line style="stroke:#304D6D;stroke-width:1.5625;" x1="440.625" x2="440.625" y1="1358.0938" y2="1404.5354"/><text fill="#FFFFFF" font-family="Verdana" font-size="12.5" lengthAdjust="spacing" textLength="211.4583" x="218.75" y="1386.2859">Взаимодействие c ClosestEntity</text><rect fill="url(#g1pzczinaycwow0)" height="61.6333" style="stroke:#304D6D;stroke-width:1.5625;" width="233.3333" x="207.8125" y="1440.9938"/><line style="stroke:#304D6D;stroke-width:1.5625;" x1="213.0208" x2="213.0208" y1="1440.9938" y2="1502.6271"/><line style="stroke:#304D6D;stroke-width:1.5625;" x1="435.9375" x2="435.9375" y1="1440.9938" y2="1502.6271"/><text fill="#FFFFFF" font-family="Verdana" font-size="12.5" lengthAdjust="spacing" textLength="202.0833" x="223.4375" y="1469.1859">Последовательная активация</text><text fill="#FFFFFF" font-family="Verdana" font-size="12.5" lengthAdjust="spacing" textLength="106.25" x="271.3542" y="1484.3775">пунктов Dialogs</text><polygon fill="url(#g1pzczinaycwow1)" points="225,1285.7396,423.9583,1285.7396,436.4583,1306.1396,423.9583,1326.5396,225,1326.5396,212.5,1306.1396,225,1285.7396" style="stroke:#6B6B6B;stroke-width:1.5625;"/><text fill="#000000" font-family="Verdana" font-size="12.5" lengthAdjust="spacing" textLength="16.6667" x="333.8542" y="1344.3151">да</text><text fill="#FFFFFF" font-family="Verdana" font-size="12.5" lengthAdjust="spacing" textLength="188.5417" x="230.2083" y="1303.5151">Расстояние до ClosestEntity</text><text fill="#FFFFFF" font-family="Verdana" font-size="12.5" lengthAdjust="spacing" textLength="123.9583" x="262.5" y="1318.7068">меньше Distance ?</text><text fill="#000000" font-family="Verdana" font-size="12.5" lengthAdjust="spacing" textLength="23.9583" x="441.6667" y="1298.3068">нет</text><polygon fill="url(#g1pzczinaycwow1)" points="324.4792,1523.4604,336.9792,1535.9604,324.4792,1548.4604,311.9792,1535.9604,324.4792,1523.4604" style="stroke:#6B6B6B;stroke-width:1.5625;"/><polygon fill="url(#g1pzczinaycwow1)" points="324.4792,1239.9063,336.9792,1252.4063,324.4792,1264.9063,311.9792,1252.4063,324.4792,1239.9063" style="stroke:#6B6B6B;stroke-width:1.5625;"/><polygon fill="url(#g1pzczinaycwow1)" points="229.1667,1569.2937,419.7917,1569.2937,432.2917,1589.6937,419.7917,1610.0937,229.1667,1610.0937,216.6667,1589.6937,229.1667,1569.2937" style="stroke:#6B6B6B;stroke-width:1.5625;"/><text fill="#000000" font-family="Verdana" font-size="12.5" lengthAdjust="spacing" textLength="23.9583" x="333.8542" y="1627.8692">нет</text><text fill="#FFFFFF" font-family="Verdana" font-size="12.5" lengthAdjust="spacing" textLength="180.2083" x="234.375" y="1587.0692">Взаимодействие прервано</text><text fill="#FFFFFF" font-family="Verdana" font-size="12.5" lengthAdjust="spacing" textLength="143.75" x="252.6042" y="1602.2608">атакой противника ?</text><text fill="#000000" font-family="Verdana" font-size="12.5" lengthAdjust="spacing" textLength="16.6667" x="437.5" y="1581.8609">да</text><rect fill="url(#g1pzczinaycwow0)" height="61.6333" style="stroke:#304D6D;stroke-width:1.5625;" width="184.375" x="493.75" y="1404.7521"/><line style="stroke:#304D6D;stroke-width:1.5625;" x1="498.9583" x2="498.9583" y1="1404.7521" y2="1466.3854"/><line style="stroke:#304D6D;stroke-width:1.5625;" x1="672.9167" x2="672.9167" y1="1404.7521" y2="1466.3854"/><text fill="#FFFFFF" font-family="Verdana" font-size="12.5" lengthAdjust="spacing" textLength="153.125" x="509.375" y="1432.9442">Атаковать ближайших</text><text fill="#FFFFFF" font-family="Verdana" font-size="12.5" lengthAdjust="spacing" textLength="87.5" x="542.1875" y="1448.1359">противников</text><rect fill="url(#g1pzczinaycwow0)" height="46.4417" style="stroke:#304D6D;stroke-width:1.5625;" width="198.9583" x="225" y="1764.7395"/><line style="stroke:#304D6D;stroke-width:1.5625;" x1="230.2083" x2="230.2083" y1="1764.7395" y2="1811.1811"/><line style="stroke:#304D6D;stroke-width:1.5625;" x1="418.75" x2="418.75" y1="1764.7395" y2="1811.1811"/><text fill="#FFFFFF" font-family="Verdana" font-size="12.5" lengthAdjust="spacing" textLength="167.7083" x="240.625" y="1792.9316">Взаимодействие c Target</text><rect fill="url(#g1pzczinaycwow0)" height="61.6333" style="stroke:#304D6D;stroke-width:1.5625;" width="233.3333" x="207.8125" y="1847.6395"/><line style="stroke:#304D6D;stroke-width:1.5625;" x1="213.0208" x2="213.0208" y1="1847.6395" y2="1909.2728"/><line style="stroke:#304D6D;stroke-width:1.5625;" x1="435.9375" x2="435.9375" y1="1847.6395" y2="1909.2728"/><text fill="#FFFFFF" font-family="Verdana" font-size="12.5" lengthAdjust="spacing" textLength="202.0833" x="223.4375" y="1875.8316">Последовательная активация</text><text fill="#FFFFFF" font-family="Verdana" font-size="12.5" lengthAdjust="spacing" textLength="106.25" x="271.3542" y="1891.0233">пунктов Dialogs</text><polygon fill="url(#g1pzczinaycwow1)" points="246.875,1692.3854,402.0833,1692.3854,414.5833,1712.7853,402.0833,1733.1853,246.875,1733.1853,234.375,1712.7853,246.875,1692.3854" style="stroke:#6B6B6B;stroke-width:1.5625;"/><text fill="#000000" font-family="Verdana" font-size="12.5" lengthAdjust="spacing" textLength="16.6667" x="333.8542" y="1750.9608">да</text><text fill="#FFFFFF" font-family="Verdana" font-size="12.5" lengthAdjust="spacing" textLength="144.7917" x="252.0833" y="1710.1608">Расстояние до Target</text><text fill="#FFFFFF" font-family="Verdana" font-size="12.5" lengthAdjust="spacing" textLength="123.9583" x="262.5" y="1725.3525">меньше Distance ?</text><text fill="#000000" font-family="Verdana" font-size="12.5" lengthAdjust="spacing" textLength="23.9583" x="419.7917" y="1704.9525">нет</text><polygon fill="url(#g1pzczinaycwow1)" points="324.4792,1930.1061,336.9792,1942.6061,324.4792,1955.1061,311.9792,1942.6061,324.4792,1930.1061" style="stroke:#6B6B6B;stroke-width:1.5625;"/><polygon fill="url(#g1pzczinaycwow1)" points="324.4792,1646.552,336.9792,1659.052,324.4792,1671.552,311.9792,1659.052,324.4792,1646.552" style="stroke:#6B6B6B;stroke-width:1.5625;"/><polygon fill="url(#g1pzczinaycwow1)" points="229.1667,1975.9394,419.7917,1975.9394,432.2917,1996.3394,419.7917,2016.7394,229.1667,2016.7394,216.6667,1996.3394,229.1667,1975.9394" style="stroke:#6B6B6B;stroke-width:1.5625;"/><text fill="#000000" font-family="Verdana" font-size="12.5" lengthAdjust="spacing" textLength="23.9583" x="333.8542" y="2034.5149">нет</text><text fill="#FFFFFF" font-family="Verdana" font-size="12.5" lengthAdjust="spacing" textLength="180.2083" x="234.375" y="1993.7149">Взаимодействие прервано</text><text fill="#FFFFFF" font-family="Verdana" font-size="12.5" lengthAdjust="spacing" textLength="143.75" x="252.6042" y="2008.9066">атакой противника ?</text><text fill="#000000" font-family="Verdana" font-size="12.5" lengthAdjust="spacing" textLength="16.6667" x="437.5" y="1988.5066">да</text><rect fill="url(#g1pzczinaycwow0)" height="61.6333" style="stroke:#304D6D;stroke-width:1.5625;" width="184.375" x="489.0625" y="1811.3978"/><line style="stroke:#304D6D;stroke-width:1.5625;" x1="494.2708" x2="494.2708" y1="1811.3978" y2="1873.0311"/><line style="stroke:#304D6D;stroke-width:1.5625;" x1="668.2292" x2="668.2292" y1="1811.3978" y2="1873.0311"/><text fill="#FFFFFF" font-family="Verdana" font-size="12.5" lengthAdjust="spacing" textLength="153.125" x="504.6875" y="1839.5899">Атаковать ближайших</text><text fill="#FFFFFF" font-family="Verdana" font-size="12.5" lengthAdjust="spacing" textLength="87.5" x="537.5" y="1854.7816">противников</text><polygon fill="url(#g1pzczinaycwow1)" points="324.4792,52.0833,336.9792,64.5833,324.4792,77.0833,311.9792,64.5833,324.4792,52.0833" style="stroke:#6B6B6B;stroke-width:1.5625;"/><polygon fill="url(#g1pzczinaycwow1)" points="205.2083,2056.9107,443.75,2056.9107,456.25,2069.7149,443.75,2082.519,205.2083,2082.519,192.7083,2069.7149,205.2083,2056.9107" style="stroke:#6B6B6B;stroke-width:1.5625;"/><text fill="#FFFFFF" font-family="Verdana" font-size="12.5" lengthAdjust="spacing" textLength="228.125" x="210.4167" y="2074.6862">Флаг StopOnApproached = False ?</text><text fill="#000000" font-family="Verdana" font-size="12.5" lengthAdjust="spacing" textLength="16.6667" x="461.4583" y="2061.882">да</text><ellipse cx="324.4792" cy="2114.8107" rx="11.4583" ry="11.4583" style="stroke:#3399F3;stroke-width:1.0416666666666667;fill:none;"/><ellipse cx="324.4792" cy="2114.8107" fill="#3399F3" rx="6.25" ry="6.25" style="stroke:#194C79;stroke-width:1.0416666666666667;"/><line style="stroke:#446E9B;stroke-width:1.5625;" x1="324.4792" x2="324.4792" y1="255.7129" y2="276.5462"/><polygon fill="#446E9B" points="320.3125,266.1296,324.4792,276.5462,328.6458,266.1296,324.4792,270.2962" style="stroke:#446E9B;stroke-width:1.0416666666666667;"/><line style="stroke:#446E9B;stroke-width:1.5625;" x1="166.1458" x2="166.1458" y1="405.4545" y2="437.0087"/><polygon fill="#446E9B" points="161.9792,426.592,166.1458,437.0087,170.3125,426.592,166.1458,430.7587" style="stroke:#446E9B;stroke-width:1.0416666666666667;"/><line style="stroke:#446E9B;stroke-width:1.5625;" x1="286.4583" x2="298.9583" y1="392.6503" y2="392.6503"/><polygon fill="#446E9B" points="294.7917,454.8691,298.9583,465.2857,303.125,454.8691,298.9583,459.0357" style="stroke:#446E9B;stroke-width:1.5625;"/><line style="stroke:#446E9B;stroke-width:1.5625;" x1="298.9583" x2="298.9583" y1="392.6503" y2="516.7837"/><line style="stroke:#446E9B;stroke-width:1.5625;" x1="298.9583" x2="178.6458" y1="516.7837" y2="516.7837"/><polygon fill="#446E9B" points="189.0625,512.617,178.6458,516.7837,189.0625,520.9503,184.8958,516.7837" style="stroke:#446E9B;stroke-width:1.0416666666666667;"/><line style="stroke:#446E9B;stroke-width:1.5625;" x1="166.1458" x2="166.1458" y1="483.4503" y2="504.2837"/><polygon fill="#446E9B" points="161.9792,493.867,166.1458,504.2837,170.3125,493.867,166.1458,498.0337" style="stroke:#446E9B;stroke-width:1.0416666666666667;"/><line style="stroke:#446E9B;stroke-width:1.5625;" x1="166.1458" x2="166.1458" y1="590.917" y2="622.4711"/><line style="stroke:#446E9B;stroke-width:1.5625;" x1="166.1458" x2="25" y1="622.4711" y2="622.4711"/><polygon fill="#446E9B" points="35.4167,618.3044,25,622.4711,35.4167,626.6378,31.25,622.4711" style="stroke:#446E9B;stroke-width:1.0416666666666667;"/><line style="stroke:#446E9B;stroke-width:1.5625;" x1="278.125" x2="315.625" y1="570.517" y2="570.517"/><polygon fill="#446E9B" points="305.2083,566.3503,315.625,570.517,305.2083,574.6836,309.375,570.517" style="stroke:#446E9B;stroke-width:1.0416666666666667;"/><line style="stroke:#446E9B;stroke-width:1.5625;" x1="166.1458" x2="166.1458" y1="529.2837" y2="550.117"/><polygon fill="#446E9B" points="161.9792,539.7003,166.1458,550.117,170.3125,539.7003,166.1458,543.867" style="stroke:#446E9B;stroke-width:1.0416666666666667;"/><line style="stroke:#446E9B;stroke-width:1.5625;" x1="482.8125" x2="482.8125" y1="405.4545" y2="437.0087"/><polygon fill="#446E9B" points="478.6458,426.592,482.8125,437.0087,486.9792,426.592,482.8125,430.7587" style="stroke:#446E9B;stroke-width:1.0416666666666667;"/><line style="stroke:#446E9B;stroke-width:1.5625;" x1="595.8333" x2="608.3333" y1="392.6503" y2="392.6503"/><polygon fill="#446E9B" points="604.1667,454.8691,608.3333,465.2857,612.5,454.8691,608.3333,459.0357" style="stroke:#446E9B;stroke-width:1.5625;"/><line style="stroke:#446E9B;stroke-width:1.5625;" x1="608.3333" x2="608.3333" y1="392.6503" y2="516.7837"/><line style="stroke:#446E9B;stroke-width:1.5625;" x1="608.3333" x2="495.3125" y1="516.7837" y2="516.7837"/><polygon fill="#446E9B" points="505.7292,512.617,495.3125,516.7837,505.7292,520.9503,501.5625,516.7837" style="stroke:#446E9B;stroke-width:1.0416666666666667;"/><line style="stroke:#446E9B;stroke-width:1.5625;" x1="482.8125" x2="482.8125" y1="483.4503" y2="504.2837"/><polygon fill="#446E9B" points="478.6458,493.867,482.8125,504.2837,486.9792,493.867,482.8125,498.0337" style="stroke:#446E9B;stroke-width:1.0416666666666667;"/><line style="stroke:#446E9B;stroke-width:1.5625;" x1="228.6458" x2="166.1458" y1="356.6254" y2="356.6254"/><line style="stroke:#446E9B;stroke-width:1.5625;" x1="166.1458" x2="166.1458" y1="356.6254" y2="379.8462"/><polygon fill="#446E9B" points="161.9792,369.4295,166.1458,379.8462,170.3125,369.4295,166.1458,373.5962" style="stroke:#446E9B;stroke-width:1.0416666666666667;"/><line style="stroke:#446E9B;stroke-width:1.5625;" x1="420.3125" x2="482.8125" y1="356.6254" y2="356.6254"/><line style="stroke:#446E9B;stroke-width:1.5625;" x1="482.8125" x2="482.8125" y1="356.6254" y2="379.8462"/><polygon fill="#446E9B" points="478.6458,369.4295,482.8125,379.8462,486.9792,369.4295,482.8125,373.5962" style="stroke:#446E9B;stroke-width:1.0416666666666667;"/><line style="stroke:#446E9B;stroke-width:1.5625;" x1="482.8125" x2="482.8125" y1="529.2837" y2="631.8461"/><line style="stroke:#446E9B;stroke-width:1.5625;" x1="482.8125" x2="324.4792" y1="631.8461" y2="631.8461"/><line style="stroke:#446E9B;stroke-width:1.5625;" x1="324.4792" x2="324.4792" y1="631.8461" y2="647.4711"/><polygon fill="#446E9B" points="320.3125,637.0544,324.4792,647.4711,328.6458,637.0544,324.4792,641.2211" style="stroke:#446E9B;stroke-width:1.0416666666666667;"/><line style="stroke:#446E9B;stroke-width:1.5625;" x1="324.4792" x2="324.4792" y1="322.9879" y2="343.8212"/><polygon fill="#446E9B" points="320.3125,333.4045,324.4792,343.8212,328.6458,333.4045,324.4792,337.5712" style="stroke:#446E9B;stroke-width:1.0416666666666667;"/><line style="stroke:#446E9B;stroke-width:1.5625;" x1="324.4792" x2="324.4792" y1="153.9083" y2="194.0796"/><polygon fill="#446E9B" points="320.3125,183.6629,324.4792,194.0796,328.6458,183.6629,324.4792,187.8296" style="stroke:#446E9B;stroke-width:1.0416666666666667;"/><line style="stroke:#446E9B;stroke-width:1.5625;" x1="324.4792" x2="324.4792" y1="709.1044" y2="719.5211"/><line style="stroke:#446E9B;stroke-width:1.5625;" x1="324.4792" x2="631.25" y1="719.5211" y2="719.5211"/><polygon fill="#446E9B" points="627.0833,456.3441,631.25,445.9274,635.4167,456.3441,631.25,452.1774" style="stroke:#446E9B;stroke-width:1.5625;"/><line style="stroke:#446E9B;stroke-width:1.5625;" x1="631.25" x2="631.25" y1="125.9125" y2="719.5211"/><line style="stroke:#446E9B;stroke-width:1.5625;" x1="631.25" x2="460.4167" y1="125.9125" y2="125.9125"/><polygon fill="#446E9B" points="470.8333,121.7458,460.4167,125.9125,470.8333,130.0791,466.6667,125.9125" style="stroke:#446E9B;stroke-width:1.0416666666666667;"/><line style="stroke:#446E9B;stroke-width:1.5625;" x1="188.5417" x2="25" y1="125.9125" y2="125.9125"/><polygon fill="#446E9B" points="20.8333,441.7608,25,452.1774,29.1667,441.7608,25,445.9274" style="stroke:#446E9B;stroke-width:1.5625;"/><line style="stroke:#446E9B;stroke-width:1.5625;" x1="25" x2="25" y1="125.9125" y2="732.0211"/><line style="stroke:#446E9B;stroke-width:1.5625;" x1="25" x2="324.4792" y1="732.0211" y2="732.0211"/><line style="stroke:#446E9B;stroke-width:1.5625;" x1="324.4792" x2="324.4792" y1="732.0211" y2="752.8544"/><polygon fill="#446E9B" points="320.3125,742.4377,324.4792,752.8544,328.6458,742.4377,324.4792,746.6044" style="stroke:#446E9B;stroke-width:1.0416666666666667;"/><line style="stroke:#446E9B;stroke-width:1.5625;" x1="324.4792" x2="324.4792" y1="850.8169" y2="882.371"/><polygon fill="#446E9B" points="320.3125,871.9543,324.4792,882.371,328.6458,871.9543,324.4792,876.121" style="stroke:#446E9B;stroke-width:1.0416666666666667;"/><line style="stroke:#446E9B;stroke-width:1.5625;" x1="437.5" x2="450" y1="838.0127" y2="838.0127"/><polygon fill="#446E9B" points="445.8333,900.2314,450,910.6481,454.1667,900.2314,450,904.3981" style="stroke:#446E9B;stroke-width:1.5625;"/><line style="stroke:#446E9B;stroke-width:1.5625;" x1="450" x2="450" y1="838.0127" y2="979.7251"/><line style="stroke:#446E9B;stroke-width:1.5625;" x1="450" x2="336.9792" y1="979.7251" y2="979.7251"/><polygon fill="#446E9B" points="347.3958,975.5585,336.9792,979.7251,347.3958,983.8918,343.2292,979.7251" style="stroke:#446E9B;stroke-width:1.0416666666666667;"/><line style="stroke:#446E9B;stroke-width:1.5625;" x1="324.4792" x2="324.4792" y1="928.8127" y2="967.2251"/><polygon fill="#446E9B" points="320.3125,956.8085,324.4792,967.2251,328.6458,956.8085,324.4792,960.9751" style="stroke:#446E9B;stroke-width:1.0416666666666667;"/><line style="stroke:#446E9B;stroke-width:1.5625;" x1="324.4792" x2="324.4792" y1="992.2251" y2="1013.0585"/><polygon fill="#446E9B" points="320.3125,1002.6418,324.4792,1013.0585,328.6458,1002.6418,324.4792,1006.8085" style="stroke:#446E9B;stroke-width:1.0416666666666667;"/><line style="stroke:#446E9B;stroke-width:1.5625;" x1="324.4792" x2="324.4792" y1="793.6544" y2="825.2085"/><polygon fill="#446E9B" points="320.3125,814.7919,324.4792,825.2085,328.6458,814.7919,324.4792,818.9585" style="stroke:#446E9B;stroke-width:1.0416666666666667;"/><line style="stroke:#446E9B;stroke-width:1.5625;" x1="414.5833" x2="460.4167" y1="773.2544" y2="773.2544"/><polygon fill="#446E9B" points="456.25,939.2293,460.4167,949.646,464.5833,939.2293,460.4167,943.396" style="stroke:#446E9B;stroke-width:1.5625;"/><line style="stroke:#446E9B;stroke-width:1.5625;" x1="460.4167" x2="460.4167" y1="773.2544" y2="1097.6313"/><line style="stroke:#446E9B;stroke-width:1.5625;" x1="460.4167" x2="336.9792" y1="1097.6313" y2="1097.6313"/><polygon fill="#446E9B" points="347.3958,1093.4647,336.9792,1097.6313,347.3958,1101.798,343.2292,1097.6313" style="stroke:#446E9B;stroke-width:1.0416666666666667;"/><line style="stroke:#446E9B;stroke-width:1.5625;" x1="324.4792" x2="324.4792" y1="1059.5001" y2="1085.1313"/><polygon fill="#446E9B" points="320.3125,1074.7147,324.4792,1085.1313,328.6458,1074.7147,324.4792,1078.8813" style="stroke:#446E9B;stroke-width:1.0416666666666667;"/><line style="stroke:#446E9B;stroke-width:1.5625;" x1="324.4792" x2="324.4792" y1="1110.1313" y2="1130.9647"/><polygon fill="#446E9B" points="320.3125,1120.548,324.4792,1130.9647,328.6458,1120.548,324.4792,1124.7147" style="stroke:#446E9B;stroke-width:1.0416666666666667;"/><line style="stroke:#446E9B;stroke-width:1.5625;" x1="324.4792" x2="324.4792" y1="1151.798" y2="1172.6313"/><polygon fill="#446E9B" points="320.3125,1162.2147,324.4792,1172.6313,328.6458,1162.2147,324.4792,1166.3813" style="stroke:#446E9B;stroke-width:1.0416666666666667;"/><line style="stroke:#446E9B;stroke-width:1.5625;" x1="324.4792" x2="324.4792" y1="1404.5354" y2="1440.9938"/><polygon fill="#446E9B" points="320.3125,1430.5771,324.4792,1440.9938,328.6458,1430.5771,324.4792,1434.7438" style="stroke:#446E9B;stroke-width:1.0416666666666667;"/><line style="stroke:#446E9B;stroke-width:1.5625;" x1="324.4792" x2="324.4792" y1="1326.5396" y2="1358.0938"/><polygon fill="#446E9B" points="320.3125,1347.6771,324.4792,1358.0938,328.6458,1347.6771,324.4792,1351.8438" style="stroke:#446E9B;stroke-width:1.0416666666666667;"/><line style="stroke:#446E9B;stroke-width:1.5625;" x1="436.4583" x2="456.25" y1="1306.1396" y2="1306.1396"/><polygon fill="#446E9B" points="452.0833,1421.2021,456.25,1431.6188,460.4167,1421.2021,456.25,1425.3688" style="stroke:#446E9B;stroke-width:1.5625;"/><line style="stroke:#446E9B;stroke-width:1.5625;" x1="456.25" x2="456.25" y1="1306.1396" y2="1535.9604"/><line style="stroke:#446E9B;stroke-width:1.5625;" x1="456.25" x2="336.9792" y1="1535.9604" y2="1535.9604"/><polygon fill="#446E9B" points="347.3958,1531.7937,336.9792,1535.9604,347.3958,1540.1271,343.2292,1535.9604" style="stroke:#446E9B;stroke-width:1.0416666666666667;"/><line style="stroke:#446E9B;stroke-width:1.5625;" x1="324.4792" x2="324.4792" y1="1502.6271" y2="1523.4604"/><polygon fill="#446E9B" points="320.3125,1513.0437,324.4792,1523.4604,328.6458,1513.0437,324.4792,1517.2104" style="stroke:#446E9B;stroke-width:1.0416666666666667;"/><line style="stroke:#446E9B;stroke-width:1.5625;" x1="324.4792" x2="324.4792" y1="1264.9063" y2="1285.7396"/><polygon fill="#446E9B" points="320.3125,1275.323,324.4792,1285.7396,328.6458,1275.323,324.4792,1279.4896" style="stroke:#446E9B;stroke-width:1.0416666666666667;"/><line style="stroke:#446E9B;stroke-width:1.5625;" x1="432.2917" x2="585.9375" y1="1589.6937" y2="1589.6937"/><line style="stroke:#446E9B;stroke-width:1.5625;" x1="585.9375" x2="585.9375" y1="1466.3854" y2="1589.6937"/><polygon fill="#446E9B" points="581.7708,1476.8021,585.9375,1466.3854,590.1042,1476.8021,585.9375,1472.6354" style="stroke:#446E9B;stroke-width:1.0416666666666667;"/><line style="stroke:#446E9B;stroke-width:1.5625;" x1="585.9375" x2="585.9375" y1="1252.4063" y2="1404.7521"/><line style="stroke:#446E9B;stroke-width:1.5625;" x1="585.9375" x2="336.9792" y1="1252.4063" y2="1252.4063"/><polygon fill="#446E9B" points="347.3958,1248.2396,336.9792,1252.4063,347.3958,1256.573,343.2292,1252.4063" style="stroke:#446E9B;stroke-width:1.0416666666666667;"/><line style="stroke:#446E9B;stroke-width:1.5625;" x1="324.4792" x2="324.4792" y1="1548.4604" y2="1569.2937"/><polygon fill="#446E9B" points="320.3125,1558.8771,324.4792,1569.2937,328.6458,1558.8771,324.4792,1563.0437" style="stroke:#446E9B;stroke-width:1.0416666666666667;"/><line style="stroke:#446E9B;stroke-width:1.5625;" x1="324.4792" x2="324.4792" y1="1219.073" y2="1239.9063"/><polygon fill="#446E9B" points="320.3125,1229.4896,324.4792,1239.9063,328.6458,1229.4896,324.4792,1233.6563" style="stroke:#446E9B;stroke-width:1.0416666666666667;"/><line style="stroke:#446E9B;stroke-width:1.5625;" x1="324.4792" x2="324.4792" y1="1811.1811" y2="1847.6395"/><polygon fill="#446E9B" points="320.3125,1837.2228,324.4792,1847.6395,328.6458,1837.2228,324.4792,1841.3895" style="stroke:#446E9B;stroke-width:1.0416666666666667;"/><line style="stroke:#446E9B;stroke-width:1.5625;" x1="324.4792" x2="324.4792" y1="1733.1853" y2="1764.7395"/><polygon fill="#446E9B" points="320.3125,1754.3228,324.4792,1764.7395,328.6458,1754.3228,324.4792,1758.4895" style="stroke:#446E9B;stroke-width:1.0416666666666667;"/><line style="stroke:#446E9B;stroke-width:1.5625;" x1="414.5833" x2="451.5625" y1="1712.7853" y2="1712.7853"/><polygon fill="#446E9B" points="447.3958,1827.8478,451.5625,1838.2645,455.7292,1827.8478,451.5625,1832.0145" style="stroke:#446E9B;stroke-width:1.5625;"/><line style="stroke:#446E9B;stroke-width:1.5625;" x1="451.5625" x2="451.5625" y1="1712.7853" y2="1942.6061"/><line style="stroke:#446E9B;stroke-width:1.5625;" x1="451.5625" x2="336.9792" y1="1942.6061" y2="1942.6061"/><polygon fill="#446E9B" points="347.3958,1938.4394,336.9792,1942.6061,347.3958,1946.7728,343.2292,1942.6061" style="stroke:#446E9B;stroke-width:1.0416666666666667;"/><line style="stroke:#446E9B;stroke-width:1.5625;" x1="324.4792" x2="324.4792" y1="1909.2728" y2="1930.1061"/><polygon fill="#446E9B" points="320.3125,1919.6894,324.4792,1930.1061,328.6458,1919.6894,324.4792,1923.8561" style="stroke:#446E9B;stroke-width:1.0416666666666667;"/><line style="stroke:#446E9B;stroke-width:1.5625;" x1="324.4792" x2="324.4792" y1="1671.552" y2="1692.3854"/><polygon fill="#446E9B" points="320.3125,1681.9687,324.4792,1692.3854,328.6458,1681.9687,324.4792,1686.1354" style="stroke:#446E9B;stroke-width:1.0416666666666667;"/><line style="stroke:#446E9B;stroke-width:1.5625;" x1="432.2917" x2="581.25" y1="1996.3394" y2="1996.3394"/><line style="stroke:#446E9B;stroke-width:1.5625;" x1="581.25" x2="581.25" y1="1873.0311" y2="1996.3394"/><polygon fill="#446E9B" points="577.0833,1883.4478,581.25,1873.0311,585.4167,1883.4478,581.25,1879.2811" style="stroke:#446E9B;stroke-width:1.0416666666666667;"/><line style="stroke:#446E9B;stroke-width:1.5625;" x1="581.25" x2="581.25" y1="1659.052" y2="1811.3978"/><line style="stroke:#446E9B;stroke-width:1.5625;" x1="581.25" x2="336.9792" y1="1659.052" y2="1659.052"/><polygon fill="#446E9B" points="347.3958,1654.8854,336.9792,1659.052,347.3958,1663.2187,343.2292,1659.052" style="stroke:#446E9B;stroke-width:1.0416666666666667;"/><line style="stroke:#446E9B;stroke-width:1.5625;" x1="324.4792" x2="324.4792" y1="1955.1061" y2="1975.9394"/><polygon fill="#446E9B" points="320.3125,1965.5228,324.4792,1975.9394,328.6458,1965.5228,324.4792,1969.6894" style="stroke:#446E9B;stroke-width:1.0416666666666667;"/><line style="stroke:#446E9B;stroke-width:1.5625;" x1="324.4792" x2="324.4792" y1="1610.0937" y2="1646.552"/><polygon fill="#446E9B" points="320.3125,1636.1354,324.4792,1646.552,328.6458,1636.1354,324.4792,1640.302" style="stroke:#446E9B;stroke-width:1.0416666666666667;"/><line style="stroke:#446E9B;stroke-width:1.5625;" x1="324.4792" x2="324.4792" y1="77.0833" y2="97.9167"/><polygon fill="#446E9B" points="320.3125,87.5,324.4792,97.9167,328.6458,87.5,324.4792,91.6667" style="stroke:#446E9B;stroke-width:1.0416666666666667;"/><line style="stroke:#446E9B;stroke-width:1.5625;" x1="456.25" x2="690.625" y1="2069.7149" y2="2069.7149"/><polygon fill="#446E9B" points="686.4583,1080.3335,690.625,1069.9168,694.7917,1080.3335,690.625,1076.1668" style="stroke:#446E9B;stroke-width:1.5625;"/><line style="stroke:#446E9B;stroke-width:1.5625;" x1="690.625" x2="690.625" y1="64.5833" y2="2069.7149"/><line style="stroke:#446E9B;stroke-width:1.5625;" x1="690.625" x2="336.9792" y1="64.5833" y2="64.5833"/><polygon fill="#446E9B" points="347.3958,60.4167,336.9792,64.5833,347.3958,68.75,343.2292,64.5833" style="stroke:#446E9B;stroke-width:1.0416666666666667;"/><line style="stroke:#446E9B;stroke-width:1.5625;" x1="324.4792" x2="324.4792" y1="2016.7394" y2="2056.9107"/><polygon fill="#446E9B" points="320.3125,2046.494,324.4792,2056.9107,328.6458,2046.494,324.4792,2050.6607" style="stroke:#446E9B;stroke-width:1.0416666666666667;"/><line style="stroke:#446E9B;stroke-width:1.5625;" x1="324.4792" x2="324.4792" y1="31.25" y2="52.0833"/><polygon fill="#446E9B" points="320.3125,41.6667,324.4792,52.0833,328.6458,41.6667,324.4792,45.8333" style="stroke:#446E9B;stroke-width:1.0416666666666667;"/><line style="stroke:#446E9B;stroke-width:1.5625;" x1="324.4792" x2="324.4792" y1="2082.519" y2="2103.3524"/><polygon fill="#446E9B" points="320.3125,2092.9357,324.4792,2103.3524,328.6458,2092.9357,324.4792,2097.1024" style="stroke:#446E9B;stroke-width:1.0416666666666667;"/><!--MD5=[d2aa6a10170db04a3077795cc941e522]
@startuml
!theme spacelab
skinparam DefaultTextAlignment Center

'skinparam BackgroundColor White

start

repeat

'partition "Поиск" {
    while (Target отсутствует\nИЛИ\nИстек Timeout повторного поиска?) is (<color:black>да)

        :Поиск ближайшего Entity\n(ClosestEntity)|
        :Обновить Timeout]
        if (ClosestEntity найдено?) then (<color:black>да) 
            if (Флаг HoldTargetEntity = True ?) then (<color:black>да) 
            else (<color:black>нет)
                :Target := ClosestEntity|
            endif 
            if (Расстояние до ClosestEntity\nменьше Distance ?) then (<color:black>да)
                (А)
            else (<color:black>нет)
                break
            endif
        else (<color:black>нет)
            if (Флаг IgnoreCombat = True ?) then (<color:black>да) 
                :Установка запрета боя]
            else (<color:black>нет)
            endif
        endif
        :Перемещение к\nследующему HotSpot|
    endwhile (<color:black>нет)
'}


if (Расстояние до Target\nбольше Distance ?) then (<color:black>да)
    if (Флаг IgnoreCombat = True ?) then (<color:black>да) 
        :Установка запрета боя]
    else (<color:black>нет)
    endif
    :Перемещение к Target|
else (<color:black>нет)
endif


(А)

:Снять запрет боя]

repeat
if(Расстояние до ClosestEntity\nменьше Distance ?) then (<color:black>да)
    :Взаимодействие c ClosestEntity|
    :Последовательная активация\nпунктов Dialogs|
else (<color:black>нет)
endif
backward :Атаковать ближайших\nпротивников|
repeat while(Взаимодействие прервано\nатакой противника ?) is (<color:black>да) not (<color:black>нет)

repeat
if(Расстояние до Target\nменьше Distance ?) then (<color:black>да)
    :Взаимодействие c Target|
    :Последовательная активация\nпунктов Dialogs|
else (<color:black>нет)
endif
backward :Атаковать ближайших\nпротивников|
repeat while(Взаимодействие прервано\nатакой противника ?) is (<color:black>да) not (<color:black>нет)


repeat while (Флаг StopOnApproached = False ?) is (<color:black>да) 

stop

@enduml

@startuml



skinparam backgroundColor transparent
skinparam useBetaStyle false







skinparam defaultFontName       "Verdana"
skinparam defaultFontSize       12
skinparam dpi                   100
skinparam shadowing             false
skinparam roundcorner           8
skinparam ParticipantPadding    40
skinparam BoxPadding            40
skinparam Padding               5
skinparam ArrowColor            #333333
skinparam stereotype {
    CBackgroundColor #b8b8b8
    CBorderColor #6b6b6b
    ABackgroundColor #4cbc5c
    ABorderColor #32a243
    IBackgroundColor #dc4e4d
    IBorderColor #900100
    EBackgroundColor #e19e4d
    EBorderColor #945200
    NBackgroundColor #70b8f7
    NBorderColor #246baa
}
skinparam title {
	FontColor	                 #304d6d
	BorderColor	                 #6b6b6b
	FontSize	    	         20
	BorderRoundCorner            8
	BorderThickness 	         1
	BackgroundColor              #b8b8b8-#999999
}

skinparam legend {
	BackgroundColor #999999
	BorderColor #6b6b6b
	FontColor #eeeeee
}

skinparam swimlane {
	BorderColor #3399f3
	BorderThickness 2
	TitleBackgroundColor  #b8b8b8-#999999
	TitleFontColor #304d6d
}


skinparam activity {
		FontColor #ffffff
	BorderColor #304d6d
	BackgroundColor #7c9ab9-#304d6d
	BarColor #3cb521
	StartColor #3399f3
	EndColor #3399f3
	DiamondBackgroundColor #b8b8b8-#6b6b6b
  	DiamondBorderColor #6b6b6b
  	DiamondFontColor #ffffff
}


skinparam participant {
		FontColor #ffffff
	BorderColor #304d6d
	BackgroundColor #7c9ab9-#304d6d
	ParticipantBorderThickness 2
}


skinparam actor {
		FontColor #ffffff
	BorderColor #304d6d
	BackgroundColor #7c9ab9-#304d6d
}


skinparam arrow {
	Thickness 3
	Color #446e9b
	FontColor #ffffff
}


skinparam sequence {
	BorderColor #446e9b
	TitleFontColor #446e9b
	BackgroundColor transparent
	StartColor #446e9b
	EndColor #446e9b
	BoxBackgroundColor transparent
	BoxBorderColor #333333
	BoxFontColor $DARk
	LifeLineBorderColor #999999
	LifeLineBorderThickness 2
	LifeLineBackgroundColor #6b6b6b-#6b6b6b
	GroupBorderColor #333333
	GroupFontColor #333333
	GroupHeaderFontColor #3399f3
	GroupBackgroundColor #6b6b6b-#6b6b6b
	GroupHeaderBackgroundColor transparent
	DividerBackgroundColor #707070-#242424
    DividerBorderColor #333333
    DividerBorderThickness 2
    DividerFontColor #eeeeee
	ReferenceBackgroundColor transparent
	ReferenceBorderColor #333333
	ReferenceFontColor #333333
	ReferenceHeaderFontColor #3399f3
	ReferenceHeaderBackgroundColor #6b6b6b-#6b6b6b
}


skinparam partition {
	BorderColor #446e9b
	FontColor #446e9b
	BackgroundColor transparent
}


skinparam collections {
		FontColor #ffffff
	BorderColor #304d6d
	BackgroundColor #7c9ab9-#304d6d
}


skinparam control {
		FontColor #ffffff
	BorderColor #304d6d
	BackgroundColor #7c9ab9-#304d6d
}


skinparam entity {
		FontColor #ffffff
	BorderColor #304d6d
	BackgroundColor #7c9ab9-#304d6d
}


skinparam boundary {
		FontColor #ffffff
	BorderColor #304d6d
	BackgroundColor #7c9ab9-#304d6d
}


skinparam agent {
	BackgroundColor #d47500
	BorderColor #e19e4d
	FontColor #333333
}


skinparam note {
	BorderThickness 1
	BackgroundColor #70b8f7-#246baa
	BorderColor #246baa
	FontColor #ffffff
}


skinparam artifact {
	BackgroundColor #333333
	BorderColor #242424
	FontColor #eeeeee
}


skinparam component {
		FontColor #ffffff
	BorderColor #304d6d
	BackgroundColor #7c9ab9-#304d6d
}


skinparam interface {
	BackgroundColor  #900100
	BorderColor  #cd0200
	FontColor #333333
}


skinparam storage {
	BackgroundColor #d47500
  	BorderColor #945200
	FontColor #ffffff
}


skinparam node {
	BackgroundColor  #999999
	BorderColor #eeeeee
	FontColor #eeeeee
}


skinparam cloud {
	BackgroundColor #F2FCFE-#eeeeee
	BorderColor #F2FCFE
	FontColor #333333
}


skinparam database {
		FontColor #ffffff
	BorderColor #304d6d
	BackgroundColor #7c9ab9-#304d6d
}


skinparam class {
		FontColor #ffffff
	BorderColor #304d6d
	BackgroundColor #7c9ab9-#304d6d
	FontColor #ffffff
	HeaderBackgroundColor #7c9ab9-#446e9b
	StereotypeFontColor #eeeeee
	BorderThickness 1
	AttributeFontColor #eeeeee
	AttributeFontSize 11
}


skinparam object {
		FontColor #ffffff
	BorderColor #304d6d
	BackgroundColor #7c9ab9-#304d6d
	StereotypeFontColor #333333
	BorderThickness 1
	AttributeFontColor #ffffff
	AttributeFontSize 11
}


skinparam usecase {
		FontColor #ffffff
	BorderColor #304d6d
	BackgroundColor #7c9ab9-#304d6d
	BorderThickness 2
	StereotypeFontColor #446e9b
}


skinparam rectangle {
		FontColor #ffffff
	BorderColor #304d6d
	BackgroundColor #7c9ab9-#304d6d
	BackgroundColor #b8b8b8-#6b6b6b
	BorderThickness 2
	StereotypeFontColor #446e9b
}


skinparam package {
	BackgroundColor #b8b8b8-#6b6b6b
  	BorderColor #446e9b
	FontColor #446e9b
	BorderThickness 2
}


skinparam folder {
	BackgroundColor #b8b8b8-#6b6b6b
  	BorderColor #d47500
	FontColor #d47500
	BorderThickness 2
}


skinparam frame {
	BackgroundColor #b8b8b8-#6b6b6b
  	BorderColor #3399f3
	FontColor #3399f3
	BorderThickness 2
}


skinparam state {
		FontColor #ffffff
	BorderColor #304d6d
	BackgroundColor #7c9ab9-#304d6d
	StartColor #3399f3
	EndColor #3399f3
	AttributeFontColor #ffffff
	AttributeFontSize 11
}


skinparam queue {
		FontColor #ffffff
	BorderColor #304d6d
	BackgroundColor #7c9ab9-#304d6d
}


skinparam card {
	BackgroundColor #70b8f7-#246baa
	BorderColor #246baa
	FontColor #ffffff
}


skinparam file {
	BackgroundColor #6b6b6b-#6b6b6b
	BorderColor #eeeeee
	FontColor #eeeeee
}


skinparam DefaultTextAlignment Center


start

repeat

    while (Target отсутствует\nИЛИ\nИстек Timeout повторного поиска?) is (<color:black>да)

        :Поиск ближайшего Entity\n(ClosestEntity)|
        :Обновить Timeout]
        if (ClosestEntity найдено?) then (<color:black>да) 
            if (Флаг HoldTargetEntity = True ?) then (<color:black>да) 
            else (<color:black>нет)
                :Target := ClosestEntity|
            endif 
            if (Расстояние до ClosestEntity\nменьше Distance ?) then (<color:black>да)
                (А)
            else (<color:black>нет)
                break
            endif
        else (<color:black>нет)
            if (Флаг IgnoreCombat = True ?) then (<color:black>да) 
                :Установка запрета боя]
            else (<color:black>нет)
            endif
        endif
        :Перемещение к\nследующему HotSpot|
    endwhile (<color:black>нет)


if (Расстояние до Target\nбольше Distance ?) then (<color:black>да)
    if (Флаг IgnoreCombat = True ?) then (<color:black>да) 
        :Установка запрета боя]
    else (<color:black>нет)
    endif
    :Перемещение к Target|
else (<color:black>нет)
endif


(А)

:Снять запрет боя]

repeat
if(Расстояние до ClosestEntity\nменьше Distance ?) then (<color:black>да)
    :Взаимодействие c ClosestEntity|
    :Последовательная активация\nпунктов Dialogs|
else (<color:black>нет)
endif
backward :Атаковать ближайших\nпротивников|
repeat while(Взаимодействие прервано\nатакой противника ?) is (<color:black>да) not (<color:black>нет)

repeat
if(Расстояние до Target\nменьше Distance ?) then (<color:black>да)
    :Взаимодействие c Target|
    :Последовательная активация\nпунктов Dialogs|
else (<color:black>нет)
endif
backward :Атаковать ближайших\nпротивников|
repeat while(Взаимодействие прервано\nатакой противника ?) is (<color:black>да) not (<color:black>нет)


repeat while (Флаг StopOnApproached = False ?) is (<color:black>да) 

stop

@enduml

PlantUML version 1.2021.7(Sun May 23 15:40:07 MSK 2021)
(GPL source distribution)
Java Runtime: Java(TM) SE Runtime Environment
JVM: Java HotSpot(TM) 64-Bit Server VM
Default Encoding: Cp1251
Language: ru
Country: RU
--></g></svg>